<svg width="103" height="68" viewBox="0 0 103 68" fill="none" xmlns="http://www.w3.org/2000/svg">
<g filter="url(#filter0_d_49_370)">
<path d="M22.4034 18.0909C22.2244 16.5795 21.4986 15.4062 20.2259 14.571C18.9531 13.7358 17.392 13.3182 15.5426 13.3182C14.1903 13.3182 13.0071 13.5369 11.9929 13.9744C10.9886 14.4119 10.2031 15.0135 9.63636 15.7791C9.07955 16.5447 8.80114 17.4148 8.80114 18.3892C8.80114 19.2045 8.99503 19.9055 9.38281 20.4922C9.78054 21.0689 10.2876 21.5511 10.9041 21.9389C11.5206 22.3168 12.1669 22.63 12.843 22.8786C13.5192 23.1172 14.1406 23.3111 14.7074 23.4602L17.8097 24.2955C18.6051 24.5043 19.4901 24.7926 20.4645 25.1605C21.4489 25.5284 22.3885 26.0305 23.2834 26.6669C24.1882 27.2933 24.9339 28.0987 25.5206 29.0831C26.1072 30.0675 26.4006 31.2756 26.4006 32.7074C26.4006 34.358 25.968 35.8494 25.103 37.1818C24.2479 38.5142 22.995 39.5732 21.3445 40.3587C19.7038 41.1442 17.7102 41.5369 15.3636 41.5369C13.1761 41.5369 11.282 41.1839 9.68111 40.478C8.0902 39.772 6.83736 38.7876 5.92259 37.5249C5.01776 36.2621 4.50568 34.7955 4.38636 33.125H8.20455C8.30398 34.2784 8.69176 35.233 9.3679 35.9886C10.054 36.7344 10.919 37.2912 11.9631 37.6591C13.017 38.017 14.1506 38.196 15.3636 38.196C16.7756 38.196 18.0433 37.9673 19.1669 37.5099C20.2905 37.0426 21.1804 36.3963 21.8366 35.571C22.4929 34.7358 22.821 33.7614 22.821 32.6477C22.821 31.6335 22.5376 30.8082 21.9709 30.1719C21.4041 29.5355 20.6584 29.0185 19.7337 28.6207C18.8089 28.223 17.8097 27.875 16.7358 27.5767L12.9773 26.5028C10.5909 25.8168 8.7017 24.8374 7.30966 23.5646C5.91761 22.2919 5.22159 20.6264 5.22159 18.5682C5.22159 16.858 5.68395 15.3665 6.60866 14.0938C7.54332 12.8111 8.79616 11.8168 10.3672 11.1108C11.9482 10.3949 13.7131 10.0369 15.6619 10.0369C17.6307 10.0369 19.3807 10.3899 20.9119 11.0959C22.4432 11.7919 23.6563 12.7464 24.5511 13.9595C25.456 15.1726 25.9332 16.5497 25.983 18.0909H22.4034Z" fill="#BBBBBB"/>
<path d="M22.0284 20.7358V17.4545H44.9375V20.7358H35.3324V48H31.6335V20.7358H22.0284Z" fill="#BBBBBB"/>
<path d="M33.9517 60H30.0739L41.2898 29.4545H45.108L56.3239 60H52.446L43.3182 34.2869H43.0795L33.9517 60ZM35.3835 48.0682H51.0142V51.3494H35.3835V48.0682Z" fill="#BBBBBB"/>
<path d="M55.6989 60V29.4545H66.0199C68.4063 29.4545 70.3651 29.8622 71.8963 30.6776C73.4276 31.483 74.5611 32.5916 75.2969 34.0036C76.0327 35.4155 76.4006 37.0213 76.4006 38.821C76.4006 40.6207 76.0327 42.2166 75.2969 43.6087C74.5611 45.0007 73.4325 46.0945 71.9112 46.8899C70.3899 47.6754 68.446 48.0682 66.0795 48.0682H57.7273V44.7273H65.9602C67.5909 44.7273 68.9034 44.4886 69.8977 44.0114C70.902 43.5341 71.6278 42.858 72.0753 41.983C72.5327 41.098 72.7614 40.044 72.7614 38.821C72.7614 37.598 72.5327 36.5291 72.0753 35.6143C71.6179 34.6996 70.8871 33.9936 69.8828 33.4964C68.8786 32.9893 67.5511 32.7358 65.9006 32.7358H59.3977V60H55.6989ZM70.0767 46.2784L77.5938 60H73.2983L65.9006 46.2784H70.0767Z" fill="#BBBBBB"/>
<path d="M75.6989 47V16.4545H79.3977V31.608H79.7557L93.4773 16.4545H98.3097L85.483 30.2358L98.3097 47H93.8352L83.2159 32.8011L79.3977 37.0966V47H75.6989Z" fill="#BBBBBB"/>
</g>
<defs>
<filter id="filter0_d_49_370" x="-2" y="0" width="109" height="71" filterUnits="userSpaceOnUse" color-interpolation-filters="sRGB">
<feFlood flood-opacity="0" result="BackgroundImageFix"/>
<feColorMatrix in="SourceAlpha" type="matrix" values="0 0 0 0 0 0 0 0 0 0 0 0 0 0 0 0 0 0 127 0" result="hardAlpha"/>
<feOffset dy="4"/>
<feGaussianBlur stdDeviation="2"/>
<feComposite in2="hardAlpha" operator="out"/>
<feColorMatrix type="matrix" values="0 0 0 0 0 0 0 0 0 0 0 0 0 0 0 0 0 0 0.25 0"/>
<feBlend mode="normal" in2="BackgroundImageFix" result="effect1_dropShadow_49_370"/>
<feBlend mode="normal" in="SourceGraphic" in2="effect1_dropShadow_49_370" result="shape"/>
</filter>
</defs>
</svg>
