<svg width="816" height="625" viewBox="0 0 816 625" fill="none" xmlns="http://www.w3.org/2000/svg">
<path d="M170.028 148.091C168.537 135.496 162.488 125.719 151.882 118.759C141.276 111.798 128.267 108.318 112.855 108.318C101.586 108.318 91.7259 110.141 83.2741 113.787C74.9053 117.433 68.3594 122.446 63.6364 128.826C58.9962 135.206 56.6761 142.456 56.6761 150.577C56.6761 157.371 58.2919 163.213 61.5234 168.102C64.8378 172.907 69.0637 176.926 74.201 180.158C79.3383 183.306 84.7242 185.916 90.3587 187.988C95.9931 189.977 101.172 191.592 105.895 192.835L131.747 199.795C138.376 201.536 145.75 203.938 153.871 207.004C162.074 210.07 169.904 214.254 177.362 219.558C184.902 224.778 191.116 231.489 196.005 239.692C200.894 247.896 203.338 257.963 203.338 269.895C203.338 283.65 199.734 296.079 192.525 307.182C185.399 318.285 174.959 327.11 161.204 333.656C147.532 340.201 130.919 343.474 111.364 343.474C93.1345 343.474 77.3497 340.533 64.0092 334.65C50.7517 328.767 40.3113 320.564 32.6882 310.04C25.148 299.517 20.8807 287.295 19.8864 273.375H51.7045C52.5331 282.987 55.7647 290.941 61.3991 297.239C67.1165 303.453 74.3253 308.093 83.0256 311.159C91.8087 314.142 101.255 315.634 111.364 315.634C123.13 315.634 133.694 313.728 143.058 309.916C152.421 306.022 159.837 300.636 165.305 293.759C170.774 286.798 173.509 278.678 173.509 269.398C173.509 260.946 171.147 254.069 166.424 248.766C161.701 243.463 155.487 239.154 147.781 235.839C140.075 232.525 131.747 229.625 122.798 227.139L91.4773 218.19C71.5909 212.473 55.8475 204.311 44.2472 193.705C32.6468 183.099 26.8466 169.22 26.8466 152.068C26.8466 137.816 30.6996 125.387 38.4055 114.781C46.1944 104.092 56.6347 95.8063 69.7266 89.9233C82.9013 83.9574 97.6089 80.9744 113.849 80.9744C130.256 80.9744 144.839 83.9159 157.599 89.799C170.36 95.5992 180.469 103.554 187.926 113.663C195.466 123.772 199.444 135.248 199.858 148.091H170.028Z" fill="#BBBBBB"/>
<path d="M169.903 174.798V147.455H360.812V174.798H280.77V402H249.946V174.798H169.903Z" fill="#BBBBBB"/>
<path d="M285.264 462H252.949L346.415 207.455H378.233L471.699 462H439.384L363.318 247.724H361.33L285.264 462ZM297.196 362.568H427.452V389.912H297.196V362.568Z" fill="#BBBBBB"/>
<path d="M454.824 462V207.455H540.832C560.719 207.455 577.042 210.852 589.803 217.646C602.563 224.358 612.009 233.597 618.141 245.363C624.272 257.129 627.338 270.511 627.338 285.509C627.338 300.506 624.272 313.805 618.141 325.406C612.009 337.006 602.604 346.12 589.927 352.749C577.249 359.295 561.05 362.568 541.33 362.568H471.727V334.727H540.335C553.924 334.727 564.862 332.739 573.148 328.761C581.517 324.784 587.565 319.15 591.294 311.858C595.106 304.483 597.011 295.7 597.011 285.509C597.011 275.317 595.106 266.409 591.294 258.786C587.482 251.163 581.392 245.28 573.023 241.137C564.655 236.911 553.593 234.798 539.838 234.798H485.648V462H454.824ZM574.639 347.653L637.281 462H601.486L539.838 347.653H574.639Z" fill="#BBBBBB"/>
<path d="M626.824 346V91.4545H657.648V217.733H660.631L774.977 91.4545H815.247L708.358 206.298L815.247 346H777.96L689.466 227.676L657.648 263.472V346H626.824Z" fill="#BBBBBB"/>
</svg>
